<?xml version="1.0" standalone="no"?>
<!DOCTYPE svg PUBLIC "-//W3C//DTD SVG 20010904//EN"
 "http://www.w3.org/TR/2001/REC-SVG-20010904/DTD/svg10.dtd">
<svg version="1.0" xmlns="http://www.w3.org/2000/svg"
 width="700.000000pt" height="700.000000pt" viewBox="0 0 700.000000 700.000000"
 preserveAspectRatio="xMidYMid meet">
<metadata>
Created by potrace 1.14, written by Peter Selinger 2001-2017
</metadata>
<g transform="translate(0.000000,700.000000) scale(0.100000,-0.100000)"
fill="#000000" stroke="none">
<path d="M4955 6969 c-38 -16 -79 -34 -90 -39 -11 -5 -96 -40 -190 -78 -227
-92 -1732 -710 -1770 -727 -16 -7 -147 -61 -290 -119 -143 -59 -269 -110 -280
-115 -61 -27 -115 -49 -375 -156 -157 -65 -321 -132 -365 -150 -80 -32 -188
-77 -530 -218 -99 -40 -353 -145 -565 -232 -336 -138 -490 -210 -490 -230 0
-10 76 5 132 25 29 10 118 45 198 78 80 33 350 144 600 246 250 103 469 193
485 201 17 7 145 60 285 118 340 140 2003 823 2255 927 470 194 739 305 865
356 74 30 149 61 166 68 30 14 31 13 152 -83 246 -195 535 -424 862 -682 184
-145 342 -269 350 -276 124 -100 247 -196 256 -200 20 -7 384 228 384 248 0 8
-290 -136 -353 -175 -21 -13 -51 9 -482 351 -253 200 -469 372 -480 381 -12 9
-50 39 -85 67 -36 27 -72 55 -80 62 -89 73 -485 383 -490 383 -3 -1 -36 -14
-75 -31z"/>
<path d="M4510 5266 c-3 -2 -30 -7 -60 -10 -30 -3 -66 -8 -80 -11 -14 -3 -43
-7 -65 -10 -22 -2 -137 -18 -255 -35 -118 -16 -233 -33 -255 -36 -22 -3 -51
-7 -65 -9 -14 -2 -63 -9 -110 -15 -86 -11 -135 -18 -180 -25 -14 -2 -92 -13
-175 -25 -82 -11 -172 -25 -200 -30 -27 -5 -61 -11 -75 -14 -49 -8 -173 -31
-220 -41 -14 -3 -42 -8 -64 -11 -21 -3 -48 -8 -60 -10 -11 -2 -37 -7 -56 -10
-19 -4 -44 -8 -55 -10 -11 -2 -166 -31 -345 -63 -179 -33 -341 -63 -360 -66
-101 -17 -266 -47 -277 -50 -8 -3 -2 -28 19 -82 37 -96 46 -125 53 -177 7 -50
43 -289 50 -331 4 -26 22 -145 40 -265 3 -19 13 -80 21 -135 9 -55 17 -111 19
-125 8 -54 36 -236 40 -260 2 -14 7 -45 10 -70 3 -25 13 -88 21 -140 9 -52 17
-111 20 -130 6 -47 24 -152 29 -166 2 -8 25 -7 82 2 43 6 101 15 128 18 28 3
86 10 130 17 44 6 91 13 105 14 27 3 180 24 220 30 14 2 63 9 110 15 47 6 96
13 110 15 48 7 105 15 145 20 22 3 103 14 180 25 77 11 160 22 185 25 25 3 90
12 145 20 55 8 120 17 145 20 25 3 62 8 83 11 41 6 56 8 137 19 30 4 64 8 75
10 11 1 47 6 80 10 33 4 68 9 78 11 19 3 209 29 291 39 27 3 52 8 55 9 3 2 35
7 71 10 36 4 74 9 85 11 27 6 77 13 151 20 33 4 76 10 95 14 l34 7 74 304 73
305 3 330 c1 182 -2 337 -6 345 -4 8 -82 109 -173 225 -91 115 -166 212 -166
216 0 4 6 9 14 12 13 5 99 60 244 155 29 19 52 36 50 37 -3 3 -40 7 -178 21
-113 11 -147 15 -180 20 -20 3 -38 3 -40 0z m120 -40 c25 -3 77 -8 115 -11 66
-7 84 -11 74 -18 -2 -2 -58 -38 -125 -80 -120 -77 -133 -82 -264 -102 -19 -3
-46 -8 -60 -10 -14 -3 -42 -7 -64 -10 -21 -2 -46 -6 -55 -9 -9 -3 -38 -7 -66
-11 -27 -3 -88 -12 -135 -20 -47 -8 -155 -26 -240 -39 -85 -14 -267 -43 -405
-65 -137 -22 -266 -42 -285 -45 -19 -3 -46 -8 -60 -10 -14 -3 -43 -7 -65 -11
-22 -3 -107 -16 -190 -30 -82 -13 -168 -26 -190 -30 -22 -3 -80 -12 -130 -21
-136 -23 -131 -22 -297 -39 -29 -3 -69 -8 -88 -10 -19 -3 -66 -7 -105 -11 -38
-3 -116 -11 -172 -18 -57 -7 -122 -12 -145 -12 l-42 1 -27 70 c-15 39 -26 71
-24 73 1 1 99 20 216 42 262 48 272 49 334 60 28 5 273 49 545 99 272 49 514
92 538 95 23 4 61 8 85 12 23 3 49 7 57 9 8 2 42 6 75 10 33 3 67 8 75 10 8 2
35 6 60 9 75 9 144 18 163 22 10 1 70 10 135 19 64 9 128 18 142 20 14 2 50 7
80 11 30 4 57 8 60 9 3 1 34 5 70 10 116 14 172 22 247 34 49 8 82 7 163 -3z
m112 -438 l175 -223 -2 -330 -2 -330 -70 -288 c-39 -158 -72 -290 -74 -292 -6
-5 -61 -15 -114 -20 -36 -4 -69 -9 -146 -21 -15 -2 -47 -6 -70 -9 -24 -3 -55
-7 -69 -10 -25 -4 -71 -11 -149 -20 -23 -3 -55 -7 -70 -9 -14 -3 -46 -7 -71
-11 -25 -3 -56 -8 -70 -10 -14 -2 -50 -7 -80 -11 -91 -11 -98 -12 -137 -18
-21 -3 -58 -8 -83 -12 -25 -3 -56 -7 -70 -9 -14 -2 -79 -11 -145 -19 -66 -9
-131 -18 -145 -21 -14 -2 -50 -7 -80 -10 -30 -4 -95 -13 -145 -20 -49 -8 -110
-16 -135 -19 -58 -7 -254 -34 -300 -40 -62 -9 -194 -27 -225 -31 -35 -5 -245
-34 -292 -40 -18 -3 -48 -7 -65 -10 -136 -19 -202 -25 -208 -18 -4 4 -11 31
-14 58 -3 28 -8 59 -10 70 -2 11 -6 41 -10 66 -4 25 -9 57 -11 70 -4 22 -25
165 -45 304 -5 33 -12 78 -15 100 -3 22 -10 65 -15 95 -5 30 -12 73 -15 95 -4
22 -12 81 -20 130 -7 50 -16 108 -20 130 -3 22 -12 83 -20 135 -8 52 -17 113
-20 135 -3 22 -7 51 -10 65 -8 43 -13 76 -20 134 -7 54 -6 56 16 57 13 0 32 2
42 4 9 2 50 6 90 10 39 3 88 8 107 10 19 3 55 6 80 9 25 2 72 7 105 11 33 3
78 8 100 10 93 9 216 25 294 40 9 1 34 5 56 9 22 3 96 15 165 26 69 11 143 22
165 25 22 4 47 8 55 10 8 2 35 7 60 10 25 3 70 10 100 15 30 5 73 12 95 15 22
4 92 15 155 25 63 11 133 22 155 26 22 3 137 21 255 40 118 19 226 37 240 39
14 2 84 13 155 25 72 12 141 23 155 25 43 6 114 17 135 21 11 2 40 7 65 10 25
3 47 8 49 10 11 10 28 -10 193 -218z"/>
<path d="M3293 4175 c-160 -25 -183 -88 -29 -80 l59 3 -93 -93 c-116 -116
-117 -130 -10 -130 41 1 102 4 135 9 61 8 142 44 128 57 -18 16 -82 24 -143
18 -36 -4 -66 -6 -67 -5 -2 2 37 43 87 92 89 88 101 109 78 132 -14 14 -37 14
-145 -3z"/>
</g>
</svg>
